<svg width="224" height="37" viewBox="0 0 224 37" fill="none" xmlns="http://www.w3.org/2000/svg">
<path d="M8.76438 29H3.4907V7.57793C3.4907 6.08675 3.78166 4.83198 4.36358 3.81361C4.95763 2.78312 5.78808 2.00722 6.85495 1.48592C7.93393 0.952486 9.21295 0.685771 10.692 0.685771C11.1769 0.685771 11.6437 0.722141 12.0923 0.794882C12.5408 0.855499 12.9773 0.934301 13.4016 1.03129L13.347 4.97746C13.1167 4.91684 12.8742 4.87441 12.6196 4.85016C12.365 4.82592 12.068 4.81379 11.7286 4.81379C11.0981 4.81379 10.5586 4.9229 10.1101 5.14112C9.67364 5.34722 9.34024 5.65637 9.1099 6.06857C8.87955 6.48076 8.76438 6.98388 8.76438 7.57793V29ZM12.6924 9.3237V13.0335H0.562894V9.3237H12.6924ZM14.6018 19.3619V18.98C14.6018 17.5373 14.8079 16.2098 15.2201 14.9975C15.6323 13.773 16.2324 12.7122 17.0204 11.8151C17.8084 10.9179 18.7783 10.2208 19.93 9.72377C21.0818 9.21459 22.4032 8.96 23.8944 8.96C25.3856 8.96 26.7131 9.21459 27.8769 9.72377C29.0408 10.2208 30.0167 10.9179 30.8047 11.8151C31.6049 12.7122 32.2111 13.773 32.6233 14.9975C33.0355 16.2098 33.2416 17.5373 33.2416 18.98V19.3619C33.2416 20.7924 33.0355 22.12 32.6233 23.3444C32.2111 24.5568 31.6049 25.6176 30.8047 26.5268C30.0167 27.424 29.0469 28.1211 27.8951 28.6181C26.7434 29.1152 25.422 29.3637 23.9308 29.3637C22.4396 29.3637 21.1121 29.1152 19.9482 28.6181C18.7965 28.1211 17.8206 27.424 17.0204 26.5268C16.2324 25.6176 15.6323 24.5568 15.2201 23.3444C14.8079 22.12 14.6018 20.7924 14.6018 19.3619ZM19.8391 18.98V19.3619C19.8391 20.1863 19.9119 20.9561 20.0573 21.6714C20.2028 22.3867 20.4332 23.0171 20.7484 23.5626C21.0757 24.0961 21.5 24.5143 22.0213 24.8174C22.5426 25.1205 23.1791 25.2721 23.9308 25.2721C24.6582 25.2721 25.2825 25.1205 25.8038 24.8174C26.3251 24.5143 26.7434 24.0961 27.0586 23.5626C27.3738 23.0171 27.6042 22.3867 27.7496 21.6714C27.9073 20.9561 27.9861 20.1863 27.9861 19.3619V18.98C27.9861 18.1799 27.9073 17.4282 27.7496 16.725C27.6042 16.0098 27.3678 15.3793 27.0404 14.8338C26.7252 14.2761 26.307 13.8397 25.7857 13.5245C25.2643 13.2093 24.6339 13.0517 23.8944 13.0517C23.1549 13.0517 22.5245 13.2093 22.0031 13.5245C21.494 13.8397 21.0757 14.2761 20.7484 14.8338C20.4332 15.3793 20.2028 16.0098 20.0573 16.725C19.9119 17.4282 19.8391 18.1799 19.8391 18.98ZM35.6238 19.3619V18.98C35.6238 17.5373 35.8299 16.2098 36.2421 14.9975C36.6543 13.773 37.2544 12.7122 38.0424 11.8151C38.8304 10.9179 39.8003 10.2208 40.952 9.72377C42.1038 9.21459 43.4252 8.96 44.9164 8.96C46.4076 8.96 47.7351 9.21459 48.8989 9.72377C50.0628 10.2208 51.0387 10.9179 51.8267 11.8151C52.6269 12.7122 53.2331 13.773 53.6453 14.9975C54.0574 16.2098 54.2635 17.5373 54.2635 18.98V19.3619C54.2635 20.7924 54.0574 22.12 53.6453 23.3444C53.2331 24.5568 52.6269 25.6176 51.8267 26.5268C51.0387 27.424 50.0688 28.1211 48.9171 28.6181C47.7654 29.1152 46.4439 29.3637 44.9528 29.3637C43.4616 29.3637 42.1341 29.1152 40.9702 28.6181C39.8185 28.1211 38.8426 27.424 38.0424 26.5268C37.2544 25.6176 36.6543 24.5568 36.2421 23.3444C35.8299 22.12 35.6238 20.7924 35.6238 19.3619ZM40.8611 18.98V19.3619C40.8611 20.1863 40.9339 20.9561 41.0793 21.6714C41.2248 22.3867 41.4552 23.0171 41.7704 23.5626C42.0977 24.0961 42.522 24.5143 43.0433 24.8174C43.5646 25.1205 44.2011 25.2721 44.9528 25.2721C45.6802 25.2721 46.3045 25.1205 46.8258 24.8174C47.3471 24.5143 47.7654 24.0961 48.0806 23.5626C48.3958 23.0171 48.6262 22.3867 48.7716 21.6714C48.9292 20.9561 49.008 20.1863 49.008 19.3619V18.98C49.008 18.1799 48.9292 17.4282 48.7716 16.725C48.6262 16.0098 48.3898 15.3793 48.0624 14.8338C47.7472 14.2761 47.329 13.8397 46.8076 13.5245C46.2863 13.2093 45.6559 13.0517 44.9164 13.0517C44.1769 13.0517 43.5465 13.2093 43.0251 13.5245C42.516 13.8397 42.0977 14.2761 41.7704 14.8338C41.4552 15.3793 41.2248 16.0098 41.0793 16.725C40.9339 17.4282 40.8611 18.1799 40.8611 18.98ZM69.1026 24.7083V1.06766H74.3763V29H69.63L69.1026 24.7083ZM56.664 19.3983V19.0164C56.664 17.5131 56.8337 16.1492 57.1732 14.9247C57.5126 13.6881 58.0097 12.6273 58.6643 11.7423C59.319 10.8573 60.1252 10.1723 61.083 9.6874C62.0407 9.20247 63.1318 8.96 64.3563 8.96C65.508 8.96 66.5143 9.20247 67.375 9.6874C68.2479 10.1723 68.9874 10.8634 69.5936 11.7605C70.2119 12.6455 70.709 13.6942 71.0848 14.9065C71.4606 16.1068 71.7334 17.4221 71.9031 18.8527V19.6892C71.7334 21.0592 71.4606 22.3321 71.0848 23.5081C70.709 24.6841 70.2119 25.7146 69.5936 26.5996C68.9874 27.4725 68.2479 28.1514 67.375 28.6363C66.5021 29.1212 65.4838 29.3637 64.3199 29.3637C63.0955 29.3637 62.0043 29.1152 61.0466 28.6181C60.101 28.1211 59.3008 27.424 58.6462 26.5268C58.0036 25.6297 57.5126 24.575 57.1732 23.3626C56.8337 22.1503 56.664 20.8288 56.664 19.3983ZM61.9013 19.0164V19.3983C61.9013 20.2105 61.9619 20.9682 62.0832 21.6714C62.2165 22.3746 62.4287 22.9989 62.7196 23.5445C63.0227 24.0779 63.4107 24.4962 63.8835 24.7992C64.3684 25.0902 64.9564 25.2357 65.6474 25.2357C66.5446 25.2357 67.2841 25.0356 67.866 24.6356C68.4479 24.2234 68.8904 23.6596 69.1935 22.9444C69.5087 22.2291 69.6906 21.4047 69.7391 20.4712V18.0889C69.7027 17.3252 69.5936 16.6402 69.4118 16.034C69.242 15.4157 68.9874 14.8883 68.648 14.4519C68.3206 14.0155 67.9085 13.676 67.4114 13.4335C66.9265 13.1911 66.3506 13.0698 65.6838 13.0698C65.0049 13.0698 64.423 13.2274 63.938 13.5426C63.4531 13.8457 63.0591 14.264 62.756 14.7974C62.465 15.3309 62.2468 15.9613 62.1013 16.6887C61.968 17.404 61.9013 18.1799 61.9013 19.0164ZM96.7985 29.3637C95.271 29.3637 93.901 29.1212 92.6887 28.6363C91.4764 28.1392 90.4459 27.4543 89.5972 26.5814C88.7607 25.7085 88.1182 24.6962 87.6696 23.5445C87.221 22.3806 86.9968 21.144 86.9968 19.8347V19.1073C86.9968 17.6161 87.2089 16.2522 87.6332 15.0156C88.0576 13.7791 88.6637 12.7061 89.4518 11.7969C90.2519 10.8876 91.2218 10.1905 92.3614 9.70559C93.501 9.20853 94.7861 8.96 96.2166 8.96C97.6108 8.96 98.8474 9.19034 99.9264 9.65103C101.005 10.1117 101.909 10.7664 102.636 11.615C103.375 12.4637 103.933 13.482 104.309 14.6701C104.685 15.8461 104.873 17.1554 104.873 18.5981V20.7803H89.2335V17.2888H99.7263V16.8887C99.7263 16.1613 99.593 15.5127 99.3263 14.9429C99.0717 14.361 98.6837 13.9003 98.1624 13.5608C97.6411 13.2214 96.9743 13.0517 96.1621 13.0517C95.471 13.0517 94.877 13.2032 94.3799 13.5063C93.8829 13.8094 93.4767 14.2337 93.1615 14.7792C92.8584 15.3248 92.6281 15.9673 92.4705 16.7069C92.325 17.4343 92.2523 18.2344 92.2523 19.1073V19.8347C92.2523 20.6227 92.3614 21.3501 92.5796 22.0169C92.8099 22.6837 93.1312 23.2596 93.5434 23.7445C93.9677 24.2294 94.4769 24.6053 95.071 24.872C95.6771 25.1387 96.3621 25.2721 97.1259 25.2721C98.0715 25.2721 98.9504 25.0902 99.7627 24.7265C100.587 24.3507 101.296 23.7869 101.89 23.0353L104.436 25.7994C104.024 26.3935 103.46 26.9633 102.745 27.5088C102.042 28.0544 101.193 28.5029 100.199 28.8545C99.205 29.194 98.0715 29.3637 96.7985 29.3637ZM112.074 9.3237L115.329 15.3066L118.675 9.3237H124.258L118.693 18.9436L124.513 29H118.912L115.366 22.6716L111.819 29H106.218L112.038 18.9436L106.473 9.3237H112.074ZM132.041 13.1062V36.565H126.804V9.3237H131.659L132.041 13.1062ZM144.498 18.9436V19.3255C144.498 20.7561 144.328 22.0836 143.989 23.3081C143.662 24.5325 143.177 25.5994 142.534 26.5086C141.892 27.4058 141.091 28.1089 140.134 28.6181C139.188 29.1152 138.097 29.3637 136.86 29.3637C135.66 29.3637 134.618 29.1212 133.733 28.6363C132.848 28.1514 132.102 27.4725 131.496 26.5996C130.902 25.7146 130.423 24.6901 130.059 23.5263C129.695 22.3624 129.417 21.1137 129.223 19.7801V18.78C129.417 17.3494 129.695 16.0401 130.059 14.852C130.423 13.6518 130.902 12.6152 131.496 11.7423C132.102 10.8573 132.841 10.1723 133.714 9.6874C134.599 9.20247 135.636 8.96 136.824 8.96C138.073 8.96 139.17 9.19641 140.115 9.66922C141.073 10.142 141.873 10.8209 142.516 11.706C143.171 12.591 143.662 13.6457 143.989 14.8702C144.328 16.0946 144.498 17.4524 144.498 18.9436ZM139.243 19.3255V18.9436C139.243 18.1071 139.17 17.3373 139.024 16.6341C138.891 15.9188 138.673 15.2945 138.37 14.7611C138.079 14.2276 137.691 13.8154 137.206 13.5245C136.733 13.2214 136.157 13.0698 135.478 13.0698C134.763 13.0698 134.151 13.185 133.642 13.4154C133.145 13.6457 132.738 13.9791 132.423 14.4155C132.108 14.852 131.872 15.3733 131.714 15.9795C131.556 16.5856 131.459 17.2706 131.423 18.0344V20.5621C131.484 21.4592 131.653 22.2654 131.932 22.9807C132.211 23.6839 132.641 24.2416 133.223 24.6538C133.805 25.066 134.569 25.2721 135.515 25.2721C136.206 25.2721 136.788 25.1205 137.26 24.8174C137.733 24.5022 138.115 24.0718 138.406 23.5263C138.709 22.9807 138.921 22.3503 139.043 21.635C139.176 20.9197 139.243 20.1499 139.243 19.3255ZM153.282 1.06766V29H148.026V1.06766H153.282ZM156.773 19.3619V18.98C156.773 17.5373 156.979 16.2098 157.391 14.9975C157.804 13.773 158.404 12.7122 159.192 11.8151C159.98 10.9179 160.95 10.2208 162.101 9.72377C163.253 9.21459 164.574 8.96 166.066 8.96C167.557 8.96 168.884 9.21459 170.048 9.72377C171.212 10.2208 172.188 10.9179 172.976 11.8151C173.776 12.7122 174.382 13.773 174.795 14.9975C175.207 16.2098 175.413 17.5373 175.413 18.98V19.3619C175.413 20.7924 175.207 22.12 174.795 23.3444C174.382 24.5568 173.776 25.6176 172.976 26.5268C172.188 27.424 171.218 28.1211 170.066 28.6181C168.915 29.1152 167.593 29.3637 166.102 29.3637C164.611 29.3637 163.283 29.1152 162.119 28.6181C160.968 28.1211 159.992 27.424 159.192 26.5268C158.404 25.6176 157.804 24.5568 157.391 23.3444C156.979 22.12 156.773 20.7924 156.773 19.3619ZM162.01 18.98V19.3619C162.01 20.1863 162.083 20.9561 162.229 21.6714C162.374 22.3867 162.604 23.0171 162.92 23.5626C163.247 24.0961 163.671 24.5143 164.193 24.8174C164.714 25.1205 165.35 25.2721 166.102 25.2721C166.829 25.2721 167.454 25.1205 167.975 24.8174C168.496 24.5143 168.915 24.0961 169.23 23.5626C169.545 23.0171 169.775 22.3867 169.921 21.6714C170.079 20.9561 170.157 20.1863 170.157 19.3619V18.98C170.157 18.1799 170.079 17.4282 169.921 16.725C169.775 16.0098 169.539 15.3793 169.212 14.8338C168.896 14.2761 168.478 13.8397 167.957 13.5245C167.436 13.2093 166.805 13.0517 166.066 13.0517C165.326 13.0517 164.696 13.2093 164.174 13.5245C163.665 13.8397 163.247 14.2761 162.92 14.8338C162.604 15.3793 162.374 16.0098 162.229 16.725C162.083 17.4282 162.01 18.1799 162.01 18.98ZM183.869 13.6154V29H178.632V9.3237H183.56L183.869 13.6154ZM189.797 9.19641L189.706 14.0518C189.452 14.0155 189.143 13.9852 188.779 13.9609C188.427 13.9245 188.106 13.9064 187.815 13.9064C187.076 13.9064 186.433 14.0033 185.887 14.1973C185.354 14.3792 184.905 14.6519 184.542 15.0156C184.19 15.3793 183.923 15.8219 183.742 16.3432C183.572 16.8645 183.475 17.4585 183.451 18.1253L182.396 17.798C182.396 16.525 182.523 15.3551 182.778 14.2882C183.032 13.2093 183.402 12.2697 183.887 11.4695C184.384 10.6694 184.99 10.0511 185.706 9.61466C186.421 9.17822 187.239 8.96 188.161 8.96C188.452 8.96 188.749 8.98425 189.052 9.03274C189.355 9.06911 189.603 9.12367 189.797 9.19641ZM200.963 29.3637C199.435 29.3637 198.065 29.1212 196.853 28.6363C195.641 28.1392 194.61 27.4543 193.762 26.5814C192.925 25.7085 192.283 24.6962 191.834 23.5445C191.385 22.3806 191.161 21.144 191.161 19.8347V19.1073C191.161 17.6161 191.373 16.2522 191.798 15.0156C192.222 13.7791 192.828 12.7061 193.616 11.7969C194.416 10.8876 195.386 10.1905 196.526 9.70559C197.665 9.20853 198.95 8.96 200.381 8.96C201.775 8.96 203.012 9.19034 204.091 9.65103C205.17 10.1117 206.073 10.7664 206.8 11.615C207.54 12.4637 208.098 13.482 208.473 14.6701C208.849 15.8461 209.037 17.1554 209.037 18.5981V20.7803H193.398V17.2888H203.891V16.8887C203.891 16.1613 203.757 15.5127 203.491 14.9429C203.236 14.361 202.848 13.9003 202.327 13.5608C201.805 13.2214 201.139 13.0517 200.326 13.0517C199.635 13.0517 199.041 13.2032 198.544 13.5063C198.047 13.8094 197.641 14.2337 197.326 14.7792C197.023 15.3248 196.792 15.9673 196.635 16.7069C196.489 17.4343 196.417 18.2344 196.417 19.1073V19.8347C196.417 20.6227 196.526 21.3501 196.744 22.0169C196.974 22.6837 197.296 23.2596 197.708 23.7445C198.132 24.2294 198.641 24.6053 199.235 24.872C199.841 25.1387 200.526 25.2721 201.29 25.2721C202.236 25.2721 203.115 25.0902 203.927 24.7265C204.751 24.3507 205.461 23.7869 206.055 23.0353L208.601 25.7994C208.188 26.3935 207.625 26.9633 206.909 27.5088C206.206 28.0544 205.358 28.5029 204.364 28.8545C203.369 29.194 202.236 29.3637 200.963 29.3637ZM217.257 13.6154V29H212.019V9.3237H216.948L217.257 13.6154ZM223.185 9.19641L223.094 14.0518C222.84 14.0155 222.53 13.9852 222.167 13.9609C221.815 13.9245 221.494 13.9064 221.203 13.9064C220.463 13.9064 219.821 14.0033 219.275 14.1973C218.742 14.3792 218.293 14.6519 217.93 15.0156C217.578 15.3793 217.311 15.8219 217.129 16.3432C216.96 16.8645 216.863 17.4585 216.839 18.1253L215.784 17.798C215.784 16.525 215.911 15.3551 216.166 14.2882C216.42 13.2093 216.79 12.2697 217.275 11.4695C217.772 10.6694 218.378 10.0511 219.093 9.61466C219.809 9.17822 220.627 8.96 221.548 8.96C221.839 8.96 222.136 8.98425 222.44 9.03274C222.743 9.06911 222.991 9.12367 223.185 9.19641Z" fill="white"/>
</svg>
